<svg width="20" height="13" viewBox="0 0 20 13" fill="none" xmlns="http://www.w3.org/2000/svg">
    <path fill-rule="evenodd" clip-rule="evenodd" d="M18.804.5h-1.167c-.644 0-1.166.504-1.166 1.125v9.75c0 .621.522 1.125 1.166 1.125h1.167c.644 0 1.167-.504 1.167-1.125v-9.75c0-.621-.523-1.125-1.167-1.125zm-6.657 2.625h1.167c.644 0 1.166.504 1.166 1.125v7.125c0 .621-.522 1.125-1.166 1.125h-1.167c-.644 0-1.167-.504-1.167-1.125V4.25c0-.621.523-1.125 1.167-1.125zM7.824 5.75H6.657c-.644 0-1.167.504-1.167 1.125v4.5c0 .621.523 1.125 1.167 1.125h1.167c.644 0 1.166-.504 1.166-1.125v-4.5c0-.621-.522-1.125-1.166-1.125zM2.334 8H1.166C.522 8 0 8.504 0 9.125v2.25c0 .621.522 1.125 1.167 1.125h1.166c.645 0 1.167-.504 1.167-1.125v-2.25C3.5 8.504 2.978 8 2.333 8z" fill="#000"/>
</svg>
