<svg width="18" height="13" viewBox="0 0 18 13" fill="none" xmlns="http://www.w3.org/2000/svg">
    <path fill-rule="evenodd" clip-rule="evenodd" d="M9.471 2.846c2.467 0 4.839.97 6.627 2.711.134.134.35.133.482-.004l1.287-1.33a.371.371 0 0 0-.003-.52 11.925 11.925 0 0 0-16.786 0 .371.371 0 0 0-.003.52l1.287 1.33a.337.337 0 0 0 .482.004 9.499 9.499 0 0 1 6.627-2.711zm0 4.327a5.39 5.39 0 0 1 3.667 1.447.34.34 0 0 0 .482-.006l1.285-1.33a.372.372 0 0 0-.005-.524 7.833 7.833 0 0 0-10.855 0 .371.371 0 0 0-.005.524l1.285 1.33a.34.34 0 0 0 .482.006 5.39 5.39 0 0 1 3.664-1.447zm2.575 2.911a.363.363 0 0 1-.105.263l-2.223 2.298a.343.343 0 0 1-.494 0l-2.223-2.298a.363.363 0 0 1 .01-.521 3.74 3.74 0 0 1 4.92 0c.071.066.113.16.115.258z" fill="#000"/>
</svg>
