<svg width="138" height="44" viewBox="0 0 138 44" fill="none" xmlns="http://www.w3.org/2000/svg">
    <path d="M7.372 31.72c-1.88 0-3.44-.64-4.68-1.92-1.24-1.28-1.86-2.84-1.86-4.68 0-1.88.62-3.46 1.86-4.74 1.24-1.28 2.8-1.92 4.68-1.92s3.42.64 4.62 1.92c1.24 1.28 1.86 2.86 1.86 4.74 0 1.84-.62 3.4-1.86 4.68-1.2 1.28-2.74 1.92-4.62 1.92zm0-16.98c-1.88 0-3.44-.64-4.68-1.92-1.24-1.28-1.86-2.84-1.86-4.68 0-1.88.62-3.46 1.86-4.74 1.24-1.28 2.8-1.92 4.68-1.92s3.42.64 4.62 1.92c1.24 1.28 1.86 2.86 1.86 4.74 0 1.84-.62 3.4-1.86 4.68-1.2 1.28-2.74 1.92-4.62 1.92zM37.588 31.6c-1.76 0-3.42-.28-4.98-.84-1.56-.6-2.88-1.42-3.96-2.46s-1.78-2.24-2.1-3.6V8.38c.32-1.36 1.02-2.6 2.1-3.72 1.08-1.16 2.4-2.08 3.96-2.76 1.56-.68 3.22-1.02 4.98-1.02 2.92 0 5.46.66 7.62 1.98 2.2 1.28 3.9 3.08 5.1 5.4 1.24 2.32 1.86 4.98 1.86 7.98s-.62 5.66-1.86 7.98c-1.2 2.28-2.9 4.08-5.1 5.4-2.16 1.32-4.7 1.98-7.62 1.98zm-2.22-10.32c.96 0 1.82-.22 2.58-.66.76-.44 1.34-1.04 1.74-1.8.44-.76.66-1.62.66-2.58 0-1-.22-1.86-.66-2.58-.4-.76-.98-1.36-1.74-1.8-.72-.44-1.56-.66-2.52-.66s-1.82.22-2.58.66c-.72.4-1.3.98-1.74 1.74-.4.76-.6 1.64-.6 2.64 0 .96.2 1.82.6 2.58.4.76.96 1.36 1.68 1.8.76.44 1.62.66 2.58.66zM19.408 43.6V1.48h11.76v7.26l-1.92 7.14 1.62 7.2V43.6h-11.46zM56.029 31V1.48h11.76V31h-11.76zm18.18 0V14.08c0-1-.3-1.78-.9-2.34-.6-.6-1.36-.9-2.28-.9-.64 0-1.22.14-1.74.42-.48.24-.86.6-1.14 1.08-.24.48-.36 1.06-.36 1.74l-4.56-1.68c0-2.4.52-4.46 1.56-6.18 1.08-1.72 2.52-3.04 4.32-3.96 1.8-.92 3.84-1.38 6.12-1.38 2 0 3.8.48 5.4 1.44 1.64.96 2.94 2.3 3.9 4.02.96 1.68 1.44 3.68 1.44 6V31h-11.76zm18.18 0V14.08c0-1-.3-1.78-.9-2.34-.6-.6-1.36-.9-2.28-.9-.64 0-1.22.14-1.74.42-.48.24-.86.6-1.14 1.08-.24.48-.36 1.06-.36 1.74l-6.9.06c0-2.76.54-5.12 1.62-7.08 1.12-2 2.66-3.52 4.62-4.56 1.96-1.08 4.2-1.62 6.72-1.62 2.36 0 4.44.5 6.24 1.5 1.84 1 3.28 2.44 4.32 4.32 1.04 1.88 1.56 4.14 1.56 6.78V31h-11.76zm30.766.72c-2.88 0-5.44-.56-7.68-1.68-2.2-1.12-3.94-2.68-5.22-4.68-1.28-2-1.92-4.28-1.92-6.84V1.48h11.76v17.16c0 .6.12 1.14.36 1.62.28.48.64.86 1.08 1.14.48.24 1.02.36 1.62.36.84 0 1.54-.28 2.1-.84.6-.6.9-1.36.9-2.28V1.48h11.76v17.04c0 2.6-.64 4.9-1.92 6.9-1.24 1.96-2.98 3.5-5.22 4.62-2.2 1.12-4.74 1.68-7.62 1.68z" fill="#212121"/>
</svg>
